<svg xmlns="http://www.w3.org/2000/svg" xmlns:xlink="http://www.w3.org/1999/xlink" width="150" zoomAndPan="magnify" viewBox="0 0 187.5 112.499997" height="50" preserveAspectRatio="xMidYMid meet" version="1.0"><defs><g/><clipPath id="a2574a32c9"><path d="M 0.164062 0 L 186.835938 0 L 186.835938 112.003906 L 0.164062 112.003906 Z M 0.164062 0 " clip-rule="nonzero"/></clipPath></defs><g clip-path="url(#a2574a32c9)"><path fill="#ffffff" d="M 0.164062 0 L 186.835938 0 L 186.835938 112.003906 L 0.164062 112.003906 Z M 0.164062 0 " fill-opacity="1" fill-rule="nonzero"/><path fill="#fafbfc" d="M 0.164062 0 L 186.835938 0 L 186.835938 112.003906 L 0.164062 112.003906 Z M 0.164062 0 " fill-opacity="1" fill-rule="nonzero"/></g><g fill="#000000" fill-opacity="1"><g transform="translate(3.96208, 78.173372)"><g><path d="M 13.1875 0 L 0.453125 -40.359375 L 7.078125 -40.359375 C 9.023438 -34.078125 10.910156 -27.734375 12.734375 -21.328125 C 14.554688 -14.921875 16.320312 -8.59375 18.03125 -2.34375 L 18.234375 -2.34375 C 19.960938 -8.59375 21.742188 -14.921875 23.578125 -21.328125 C 25.410156 -27.734375 27.320312 -34.078125 29.3125 -40.359375 L 35.734375 -40.359375 L 23.03125 0 Z M 13.1875 0 "/></g></g></g><g fill="#000000" fill-opacity="1"><g transform="translate(40.146184, 78.173372)"><g><path d="M 14.265625 0.875 C 11.441406 0.875 9.050781 0.25 7.09375 -1 C 5.144531 -2.25 3.660156 -4.019531 2.640625 -6.3125 C 1.628906 -8.601562 1.125 -11.300781 1.125 -14.40625 C 1.125 -17.632812 1.644531 -20.382812 2.6875 -22.65625 C 3.726562 -24.925781 5.234375 -26.660156 7.203125 -27.859375 C 9.179688 -29.066406 11.5625 -29.671875 14.34375 -29.671875 C 17.125 -29.671875 19.476562 -29.066406 21.40625 -27.859375 C 23.332031 -26.660156 24.800781 -24.925781 25.8125 -22.65625 C 26.832031 -20.382812 27.34375 -17.632812 27.34375 -14.40625 C 27.34375 -11.1875 26.820312 -8.4375 25.78125 -6.15625 C 24.75 -3.875 23.257812 -2.128906 21.3125 -0.921875 C 19.375 0.273438 17.023438 0.875 14.265625 0.875 Z M 14.28125 -4.8125 C 16.875 -4.8125 18.910156 -5.644531 20.390625 -7.3125 C 21.867188 -8.988281 22.609375 -11.363281 22.609375 -14.4375 C 22.609375 -17.476562 21.878906 -19.832031 20.421875 -21.5 C 18.960938 -23.175781 16.914062 -24.015625 14.28125 -24.015625 C 11.632812 -24.015625 9.570312 -23.175781 8.09375 -21.5 C 6.625 -19.832031 5.890625 -17.46875 5.890625 -14.40625 C 5.890625 -11.351562 6.632812 -8.988281 8.125 -7.3125 C 9.625 -5.644531 11.675781 -4.8125 14.28125 -4.8125 Z M 14.28125 -4.8125 "/></g></g></g><g fill="#000000" fill-opacity="1"><g transform="translate(68.608762, 78.173372)"><g><path d="M 7.671875 0 L 2.453125 0 L 2.453125 -40.75 L 7.671875 -40.75 Z M 7.671875 0 "/></g></g></g><g fill="#000000" fill-opacity="1"><g transform="translate(78.725659, 78.173372)"><g><path d="M 18.875 -9.75 L 22.796875 -9.546875 C 23.046875 -7.578125 22.859375 -5.804688 22.234375 -4.234375 C 21.617188 -2.671875 20.597656 -1.429688 19.171875 -0.515625 C 17.753906 0.390625 15.96875 0.84375 13.8125 0.84375 C 11.6875 0.84375 9.972656 0.414062 8.671875 -0.4375 C 7.378906 -1.289062 6.445312 -2.488281 5.875 -4.03125 C 5.300781 -5.570312 5.015625 -7.375 5.015625 -9.4375 L 5.015625 -23.28125 L 0.390625 -23.28125 L 0.390625 -28.796875 L 2.734375 -28.796875 C 3.921875 -28.796875 4.734375 -29.117188 5.171875 -29.765625 C 5.609375 -30.421875 5.828125 -31.347656 5.828125 -32.546875 L 5.828125 -37.9375 L 10.140625 -37.9375 C 10.140625 -36 10.128906 -34.445312 10.109375 -33.28125 C 10.097656 -32.113281 10.007812 -31.222656 9.84375 -30.609375 C 9.6875 -30.003906 9.394531 -29.5625 8.96875 -29.28125 L 8.96875 -28.796875 L 18.765625 -28.796875 L 18.765625 -23.28125 L 10.203125 -23.28125 L 10.203125 -10.515625 C 10.203125 -9.003906 10.378906 -7.820312 10.734375 -6.96875 C 11.085938 -6.113281 11.582031 -5.515625 12.21875 -5.171875 C 12.863281 -4.828125 13.617188 -4.65625 14.484375 -4.65625 C 15.929688 -4.65625 17.0625 -5.054688 17.875 -5.859375 C 18.695312 -6.671875 19.03125 -7.96875 18.875 -9.75 Z M 18.875 -9.75 "/></g></g></g><g fill="#000000" fill-opacity="1"><g transform="translate(101.862073, 78.173372)"><g><path d="M 27.078125 -5.015625 C 27.722656 -5.015625 28.289062 -5.109375 28.78125 -5.296875 L 28.78125 0.0625 C 28.300781 0.257812 27.753906 0.4375 27.140625 0.59375 C 26.535156 0.757812 25.867188 0.84375 25.140625 0.84375 C 24.273438 0.84375 23.554688 0.671875 22.984375 0.328125 C 22.410156 -0.00390625 21.984375 -0.582031 21.703125 -1.40625 C 21.421875 -2.238281 21.265625 -3.375 21.234375 -4.8125 C 21.203125 -6.25 21.300781 -8.054688 21.53125 -10.234375 L 21.25 -10.234375 C 20.519531 -6.566406 19.128906 -3.796875 17.078125 -1.921875 C 15.023438 -0.0546875 12.476562 0.875 9.4375 0.875 C 8.363281 0.875 7.335938 0.722656 6.359375 0.421875 C 5.390625 0.117188 4.519531 -0.332031 3.75 -0.9375 C 2.976562 -1.550781 2.363281 -2.332031 1.90625 -3.28125 C 1.457031 -4.226562 1.234375 -5.359375 1.234375 -6.671875 C 1.234375 -8.460938 1.675781 -9.945312 2.5625 -11.125 C 3.445312 -12.3125 4.726562 -13.25 6.40625 -13.9375 C 8.09375 -14.625 10.132812 -15.113281 12.53125 -15.40625 C 14.925781 -15.695312 17.632812 -15.820312 20.65625 -15.78125 L 20.65625 -17.59375 C 20.65625 -19.820312 20.101562 -21.457031 19 -22.5 C 17.90625 -23.539062 16.25 -24.0625 14.03125 -24.0625 C 13.039062 -24.0625 12.082031 -23.90625 11.15625 -23.59375 C 10.238281 -23.289062 9.445312 -22.832031 8.78125 -22.21875 C 8.113281 -21.613281 7.660156 -20.863281 7.421875 -19.96875 C 7.191406 -19.070312 7.265625 -18.035156 7.640625 -16.859375 L 3.890625 -17.1875 C 3.265625 -18.84375 3.070312 -20.414062 3.3125 -21.90625 C 3.5625 -23.40625 4.171875 -24.734375 5.140625 -25.890625 C 6.109375 -27.054688 7.378906 -27.972656 8.953125 -28.640625 C 10.535156 -29.316406 12.363281 -29.65625 14.4375 -29.65625 C 16.757812 -29.65625 18.769531 -29.25 20.46875 -28.4375 C 22.175781 -27.625 23.492188 -26.378906 24.421875 -24.703125 C 25.347656 -23.035156 25.8125 -20.898438 25.8125 -18.296875 L 25.8125 -7.96875 C 25.8125 -7 25.894531 -6.265625 26.0625 -5.765625 C 26.238281 -5.265625 26.578125 -5.015625 27.078125 -5.015625 Z M 11.640625 -4.515625 C 13.273438 -4.515625 14.769531 -4.863281 16.125 -5.5625 C 17.488281 -6.269531 18.582031 -7.34375 19.40625 -8.78125 C 20.238281 -10.21875 20.65625 -12.023438 20.65625 -14.203125 L 20.65625 -14.375 C 15.976562 -14.414062 12.410156 -13.957031 9.953125 -13 C 7.503906 -12.039062 6.28125 -10.546875 6.28125 -8.515625 C 6.28125 -7.191406 6.785156 -6.191406 7.796875 -5.515625 C 8.816406 -4.847656 10.097656 -4.515625 11.640625 -4.515625 Z M 11.640625 -4.515625 "/></g></g></g><g fill="#000000" fill-opacity="1"><g transform="translate(131.480061, 78.173372)"><g><path d="M 7.609375 0 L 2.453125 0 L 2.453125 -28.796875 L 7.890625 -28.796875 L 6.8125 -17.421875 L 7.109375 -17.421875 C 7.492188 -19.921875 8.101562 -22.082031 8.9375 -23.90625 C 9.78125 -25.738281 10.863281 -27.15625 12.1875 -28.15625 C 13.507812 -29.15625 15.09375 -29.65625 16.9375 -29.65625 C 18.382812 -29.65625 19.609375 -29.367188 20.609375 -28.796875 C 21.617188 -28.234375 22.40625 -27.46875 22.96875 -26.5 C 23.53125 -25.53125 23.882812 -24.425781 24.03125 -23.1875 C 24.1875 -21.945312 24.144531 -20.640625 23.90625 -19.265625 C 23.675781 -17.898438 23.25 -16.539062 22.625 -15.1875 L 18.875 -15.25 C 19.539062 -16.84375 19.832031 -18.269531 19.75 -19.53125 C 19.675781 -20.789062 19.242188 -21.785156 18.453125 -22.515625 C 17.671875 -23.253906 16.523438 -23.625 15.015625 -23.625 C 13.929688 -23.625 12.976562 -23.40625 12.15625 -22.96875 C 11.34375 -22.539062 10.644531 -21.957031 10.0625 -21.21875 C 9.476562 -20.488281 9.003906 -19.664062 8.640625 -18.75 C 8.285156 -17.84375 8.023438 -16.910156 7.859375 -15.953125 C 7.691406 -14.992188 7.609375 -14.082031 7.609375 -13.21875 Z M 7.609375 0 "/></g></g></g><g fill="#000000" fill-opacity="1"><g transform="translate(155.969145, 78.173372)"><g><path d="M 13.984375 -4.671875 C 15.910156 -4.671875 17.507812 -5.140625 18.78125 -6.078125 C 20.050781 -7.023438 20.78125 -8.398438 20.96875 -10.203125 L 24.828125 -8.453125 C 24.691406 -7.191406 24.347656 -6.003906 23.796875 -4.890625 C 23.242188 -3.773438 22.5 -2.785156 21.5625 -1.921875 C 20.625 -1.054688 19.503906 -0.375 18.203125 0.125 C 16.910156 0.625 15.445312 0.875 13.8125 0.875 C 11.6875 0.875 9.828125 0.488281 8.234375 -0.28125 C 6.648438 -1.050781 5.332031 -2.128906 4.28125 -3.515625 C 3.226562 -4.910156 2.4375 -6.539062 1.90625 -8.40625 C 1.382812 -10.28125 1.125 -12.316406 1.125 -14.515625 C 1.125 -16.847656 1.4375 -18.945312 2.0625 -20.8125 C 2.695312 -22.6875 3.585938 -24.28125 4.734375 -25.59375 C 5.878906 -26.90625 7.234375 -27.910156 8.796875 -28.609375 C 10.367188 -29.316406 12.097656 -29.671875 13.984375 -29.671875 C 15.910156 -29.671875 17.671875 -29.320312 19.265625 -28.625 C 20.867188 -27.9375 22.179688 -26.929688 23.203125 -25.609375 C 24.234375 -24.296875 24.890625 -22.695312 25.171875 -20.8125 C 25.453125 -18.925781 25.253906 -16.78125 24.578125 -14.375 L 5.921875 -14.375 C 5.953125 -12.476562 6.269531 -10.800781 6.875 -9.34375 C 7.476562 -7.882812 8.367188 -6.738281 9.546875 -5.90625 C 10.734375 -5.082031 12.210938 -4.671875 13.984375 -4.671875 Z M 13.984375 -24.234375 C 11.597656 -24.234375 9.710938 -23.488281 8.328125 -22 C 6.941406 -20.519531 6.15625 -18.472656 5.96875 -15.859375 L 20.265625 -15.859375 C 20.660156 -17.648438 20.625 -19.164062 20.15625 -20.40625 C 19.695312 -21.644531 18.921875 -22.59375 17.828125 -23.25 C 16.742188 -23.90625 15.460938 -24.234375 13.984375 -24.234375 Z M 13.984375 -24.234375 "/></g></g></g><g fill="#000000" fill-opacity="1"><g transform="translate(182.431717, 78.173372)"><g/></g></g></svg>